<svg width="1120" height="260" viewBox="0 0 1120 260" fill="none" xmlns="http://www.w3.org/2000/svg">
<path d="M350.084 82.2C350.084 78.8667 351.351 76 353.884 73.6C356.551 71.2 359.751 70 363.484 70H454.084C454.084 78 452.684 83.8667 449.884 87.6C447.218 91.2 442.818 93 436.684 93H376.884V126.8H430.084C430.084 134.8 428.684 140.667 425.884 144.4C423.218 148 418.818 149.8 412.684 149.8H376.884V192.8C376.884 199.467 374.751 204.333 370.484 207.4C366.218 210.333 359.418 211.8 350.084 211.8V82.2ZM476.45 98.8C471.65 98.8 467.65 97.4 464.45 94.6C461.383 91.6667 459.85 87.9333 459.85 83.4C459.85 79 461.383 75.4 464.45 72.6C467.65 69.6667 471.65 68.2 476.45 68.2C481.25 68.2 485.183 69.6667 488.25 72.6C491.45 75.4 493.05 79 493.05 83.4C493.05 87.9333 491.45 91.6667 488.25 94.6C485.183 97.4 481.25 98.8 476.45 98.8ZM463.85 123.4C463.85 117.933 465.916 114.067 470.05 111.8C474.183 109.4 480.45 108.2 488.85 108.2V196.6C488.85 201.933 486.783 205.8 482.65 208.2C478.516 210.6 472.25 211.8 463.85 211.8V123.4ZM549.486 211.8C538.419 211.8 530.019 208.667 524.286 202.4C518.686 196 515.886 187.933 515.886 178.2V83.4C515.886 77.9333 517.886 74.0667 521.886 71.8C526.019 69.4 532.352 68.2 540.886 68.2V177.2C540.886 181.733 541.886 185.067 543.886 187.2C545.886 189.2 549.086 190.2 553.486 190.2C558.419 190.2 563.352 188.933 568.286 186.4C569.619 187.6 570.619 189.133 571.286 191C572.086 192.733 572.486 194.533 572.486 196.4C572.486 200.4 570.486 204 566.486 207.2C562.486 210.267 556.819 211.8 549.486 211.8ZM617.854 211.8C611.054 211.8 604.788 210.467 599.054 207.8C593.454 205.133 588.921 201.333 585.454 196.4C582.121 191.333 580.454 185.333 580.454 178.4C580.454 171.467 582.254 165.467 585.854 160.4C589.454 155.2 594.321 151.267 600.454 148.6C606.721 145.8 613.588 144.4 621.054 144.4C627.188 144.4 632.654 145.4 637.454 147.4C642.388 149.267 646.921 152.133 651.054 156L652.054 155C650.854 153.8 648.788 152 645.854 149.6V145.6C645.854 140.133 643.921 135.8 640.054 132.6C636.188 129.4 630.788 127.8 623.854 127.8C611.454 127.8 602.321 132.333 596.454 141.4C593.521 140.467 591.054 139 589.054 137C587.054 134.867 586.054 132.6 586.054 130.2C586.054 126.2 587.854 122.533 591.454 119.2C595.054 115.867 599.921 113.2 606.054 111.2C612.188 109.2 618.854 108.2 626.054 108.2C640.188 108.2 651.121 111.533 658.854 118.2C666.588 124.733 670.454 133.667 670.454 145V195C670.454 200.867 668.588 205.133 664.854 207.8C661.121 210.467 655.254 211.8 647.254 211.8V203.6C649.521 201.333 651.054 199.667 651.854 198.6L651.054 197.6C646.654 202.267 641.921 205.8 636.854 208.2C631.921 210.6 625.588 211.8 617.854 211.8ZM624.254 193.6C631.188 193.6 636.588 192.267 640.454 189.6C644.321 186.933 646.254 183.133 646.254 178.2C646.254 173.4 644.254 169.6 640.254 166.8C636.388 164 631.121 162.6 624.454 162.6C618.321 162.6 613.454 164 609.854 166.8C606.388 169.467 604.654 173.267 604.654 178.2C604.654 183.267 606.388 187.133 609.854 189.8C613.321 192.333 618.121 193.6 624.254 193.6Z" fill="#202E88"/>
<path d="M692.858 82.2C692.858 78.8667 694.124 76 696.658 73.6C699.324 71.2 702.524 70 706.258 70H796.858C796.858 78 795.458 83.8667 792.658 87.6C789.991 91.2 785.591 93 779.458 93H719.658V126.8H772.858C772.858 134.8 771.458 140.667 768.658 144.4C765.991 148 761.591 149.8 755.458 149.8H719.658V192.8C719.658 199.467 717.524 204.333 713.258 207.4C708.991 210.333 702.191 211.8 692.858 211.8V82.2ZM848.509 211.8C837.443 211.8 829.043 208.667 823.309 202.4C817.709 196 814.909 187.933 814.909 178.2V83.4C814.909 77.9333 816.909 74.0667 820.909 71.8C825.043 69.4 831.376 68.2 839.909 68.2V177.2C839.909 181.733 840.909 185.067 842.909 187.2C844.909 189.2 848.109 190.2 852.509 190.2C857.443 190.2 862.376 188.933 867.309 186.4C868.643 187.6 869.643 189.133 870.309 191C871.109 192.733 871.509 194.533 871.509 196.4C871.509 200.4 869.509 204 865.509 207.2C861.509 210.267 855.843 211.8 848.509 211.8ZM925.478 211.8C916.811 211.8 908.945 210.267 901.878 207.2C894.945 204 889.478 199.6 885.478 194C881.478 188.4 879.478 182.067 879.478 175V146.8C879.478 139.6 881.411 133.067 885.278 127.2C889.278 121.333 894.745 116.733 901.678 113.4C908.611 109.933 916.545 108.2 925.478 108.2C934.411 108.2 942.345 109.933 949.278 113.4C956.345 116.733 961.811 121.333 965.678 127.2C969.678 133.067 971.678 139.6 971.678 146.8V175C971.678 182.067 969.611 188.4 965.478 194C961.478 199.6 955.945 204 948.878 207.2C941.945 210.267 934.145 211.8 925.478 211.8ZM925.478 190.4C932.145 190.4 937.345 188.867 941.078 185.8C944.945 182.733 946.878 178.6 946.878 173.4V148C946.878 142.533 944.945 138.133 941.078 134.8C937.345 131.333 932.145 129.6 925.478 129.6C918.945 129.6 913.745 131.333 909.878 134.8C906.011 138.133 904.078 142.533 904.078 148V173.4C904.078 178.6 906.011 182.733 909.878 185.8C913.745 188.867 918.945 190.4 925.478 190.4ZM1024.52 211.8C1018.38 211.8 1013.25 210.6 1009.12 208.2C1004.98 205.667 1002.25 202.067 1000.92 197.4L977.915 110.4C978.982 109.733 980.582 109.2 982.715 108.8C984.849 108.4 986.915 108.2 988.915 108.2C992.915 108.2 996.249 109.133 998.915 111C1001.72 112.733 1003.45 115.067 1004.12 118L1015.92 171.8L1013.32 182.8L1014.52 183.2L1032.52 116.4C1033.32 114 1034.72 112.067 1036.72 110.6C1038.72 109 1041.32 108.2 1044.52 108.2C1047.85 108.2 1050.58 109 1052.72 110.6C1054.85 112.067 1056.25 114 1056.92 116.4L1071.32 173.2L1068.32 184.8L1069.52 185.2L1084.92 118C1085.58 115.067 1087.32 112.733 1090.12 111C1092.92 109.133 1096.32 108.2 1100.32 108.2C1102.45 108.2 1104.52 108.4 1106.52 108.8C1108.65 109.2 1110.25 109.733 1111.32 110.4L1088.32 197.4C1087.12 201.933 1084.18 205.467 1079.52 208C1074.85 210.533 1069.38 211.8 1063.12 211.8L1042.72 131.4L1041.72 131.8L1043.92 140.4L1024.52 211.8Z" fill="#D1B12D"/>
<path d="M140.784 43.5C132.784 47 133.284 47.5 133.284 47.5C133.284 47.5 154.284 51 155.784 75.5C155.784 75.5 178.284 64.5 206.784 66.5C206.784 66.5 186.784 73 177.784 82C177.784 82 197.784 81 204.784 104.5C204.784 104.5 225.284 91.5 250.284 96.5C250.284 96.5 232.784 103 226.784 112.5C226.784 112.5 248.784 110.5 255.784 136C255.784 136 266.784 124.278 295.784 127.5C295.784 127.5 310.92 125 310.284 108.5C309.648 92 292.784 90.5 292.784 90.5C292.784 90.5 269.784 88.5 257.284 79C244.784 69.5 225.784 48.5 198.784 40.5C171.784 32.5 148.784 40 140.784 43.5Z" fill="#D1B12D"/>
<rect x="68.9219" y="7.16315" width="39.1704" height="201.514" rx="19" transform="rotate(20 68.9219 7.16315)" fill="#D1B12D"/>
<rect x="115.206" y="51" width="39.1704" height="154.915" rx="19" transform="rotate(20 115.206 51)" fill="#202E88"/>
<rect x="164.302" y="87" width="39.1704" height="117.096" rx="19" transform="rotate(20 164.302 87)" fill="#202E88"/>
<rect x="215.129" y="117" width="39.1704" height="84.3356" rx="19" transform="rotate(20 215.129 117)" fill="#202E88"/>
</svg>
