<svg width="311" height="204" viewBox="0 0 311 204" fill="none" xmlns="http://www.w3.org/2000/svg">
<path d="M140.784 36.3369C132.784 39.8369 133.284 40.3369 133.284 40.3369C133.284 40.3369 154.284 43.8368 155.784 68.3368C155.784 68.3368 178.284 57.3368 206.784 59.3368C206.784 59.3368 186.784 65.8368 177.784 74.8368C177.784 74.8368 197.784 73.8369 204.784 97.3369C204.784 97.3369 225.284 84.3368 250.284 89.3368C250.284 89.3368 232.784 95.8369 226.784 105.337C226.784 105.337 248.784 103.337 255.784 128.837C255.784 128.837 266.784 117.115 295.784 120.337C295.784 120.337 310.92 117.837 310.284 101.337C309.648 84.8369 292.784 83.3368 292.784 83.3368C292.784 83.3368 269.784 81.3368 257.284 71.8368C244.784 62.3368 225.784 41.3369 198.784 33.3369C171.784 25.3369 148.784 32.8369 140.784 36.3369Z" fill="#D1B12D"/>
<rect x="68.9219" width="39.1704" height="201.514" rx="19" transform="rotate(20 68.9219 0)" fill="#D1B12D"/>
<rect x="115.206" y="43.8369" width="39.1704" height="154.915" rx="19" transform="rotate(20 115.206 43.8369)" fill="#202E88"/>
<rect x="164.302" y="79.8369" width="39.1704" height="117.096" rx="19" transform="rotate(20 164.302 79.8369)" fill="#202E88"/>
<rect x="215.129" y="109.837" width="39.1704" height="84.3356" rx="19" transform="rotate(20 215.129 109.837)" fill="#202E88"/>
</svg>
